<?xml version="1.0" standalone="no"?>
<!DOCTYPE svg PUBLIC "-//W3C//DTD SVG 20010904//EN"
 "http://www.w3.org/TR/2001/REC-SVG-20010904/DTD/svg10.dtd">
<svg version="1.0" xmlns="http://www.w3.org/2000/svg"
 width="1024.000000pt" height="1024.000000pt" viewBox="0 0 1024.000000 1024.000000"
 preserveAspectRatio="xMidYMid meet">

<g transform="translate(0.000000,1024.000000) scale(0.100000,-0.100000)"
fill="#000000" stroke="none">
<path d="M5411 6661 c-107 -26 -196 -52 -198 -58 -3 -9 344 -1494 350 -1499 4
-3 408 94 413 99 9 8 -351 1507 -361 1506 -5 -1 -97 -22 -204 -48z m214 -162
c4 -11 5 -22 3 -24 -6 -5 -319 -77 -323 -74 -2 2 -5 13 -7 24 -3 17 13 23 147
56 182 45 172 44 180 18z m33 -154 c-2 -14 -36 -26 -158 -55 -148 -35 -155
-36 -164 -18 -5 10 -7 21 -4 24 12 11 313 80 321 73 5 -4 7 -15 5 -24z m35
-137 c4 -12 5 -23 4 -24 -6 -6 -317 -77 -321 -73 -2 2 -6 12 -8 23 -3 16 16
23 152 56 85 21 158 39 161 39 4 1 9 -9 12 -21z"/>
<path d="M4200 5870 l0 -770 225 0 225 0 0 770 0 770 -225 0 -225 0 0 -770z
m370 575 l0 -25 -150 0 -150 0 0 25 0 25 150 0 150 0 0 -25z m0 -150 l0 -25
-150 0 -150 0 0 25 0 25 150 0 150 0 0 -25z m0 -150 l0 -25 -150 0 -150 0 0
25 0 25 150 0 150 0 0 -25z"/>
<path d="M4720 5870 l0 -770 200 0 200 0 0 770 0 770 -200 0 -200 0 0 -770z
m350 575 l0 -25 -150 0 -150 0 0 25 0 25 150 0 150 0 0 -25z m0 -150 l0 -25
-150 0 -150 0 0 25 0 25 150 0 150 0 0 -25z m0 -150 l0 -25 -150 0 -150 0 0
25 0 25 150 0 150 0 0 -25z"/>
<path d="M4100 4970 l0 -70 1015 0 1015 0 0 70 0 70 -1015 0 -1015 0 0 -70z"/>
<path d="M4102 4559 c-26 -13 -55 -39 -70 -62 l-27 -41 0 -201 0 -201 28 -43
c36 -54 92 -80 169 -81 70 0 103 12 146 53 49 47 62 106 62 272 0 161 -14 226
-57 267 -63 60 -172 76 -251 37z m147 -118 c28 -28 34 -71 30 -221 -4 -124 -5
-133 -28 -151 -34 -27 -75 -24 -100 7 -19 24 -21 40 -21 181 0 150 1 155 25
178 29 30 68 32 94 6z"/>
<path d="M5835 4561 c-89 -41 -104 -84 -105 -301 0 -184 8 -225 51 -275 39
-44 84 -58 169 -53 130 7 179 78 180 261 l0 97 -100 0 -100 0 0 -55 0 -55 35
0 35 0 0 -48 c0 -57 -20 -82 -68 -82 -34 0 -59 20 -68 54 -3 13 -4 89 -2 169
3 126 6 148 22 166 36 40 98 21 112 -35 6 -22 11 -24 66 -24 l61 0 -5 44 c-7
62 -43 115 -92 137 -53 24 -139 24 -191 0z"/>
<path d="M3600 4255 l0 -315 65 0 65 0 0 130 0 130 80 0 80 0 0 60 0 60 -80 0
-80 0 0 65 0 65 90 0 90 0 0 60 0 60 -155 0 -155 0 0 -315z"/>
<path d="M4530 4255 l0 -315 65 0 65 0 0 105 c0 103 0 105 23 105 19 0 30 -16
71 -105 l49 -105 68 0 68 0 -16 38 c-8 20 -33 72 -55 116 l-39 78 25 27 c72
75 76 238 8 315 -37 42 -90 56 -214 56 l-118 0 0 -315z m230 175 c14 -14 20
-33 20 -67 0 -62 -28 -93 -82 -93 l-38 0 0 90 0 90 40 0 c27 0 47 -7 60 -20z"/>
<path d="M5030 4255 l0 -315 170 0 170 0 0 60 0 60 -105 0 -105 0 0 70 0 70
90 0 90 0 0 60 0 60 -90 0 -90 0 0 65 0 65 100 0 100 0 0 60 0 60 -165 0 -165
0 0 -315z"/>
<path d="M5480 4255 l0 -315 65 0 65 0 0 315 0 315 -65 0 -65 0 0 -315z"/>
<path d="M6240 4255 l0 -315 62 0 61 0 -6 198 -5 197 32 -85 c17 -47 54 -136
81 -197 l49 -113 63 0 63 0 0 315 0 315 -61 0 -62 0 5 -194 5 -194 -52 126
c-29 70 -65 157 -81 194 l-29 68 -62 0 -63 0 0 -315z"/>
<path d="M5300 3505 c0 -103 4 -165 10 -165 6 0 10 62 10 165 0 103 -4 165
-10 165 -6 0 -10 -62 -10 -165z"/>
<path d="M3621 3518 c12 -29 32 -81 45 -115 l23 -61 -22 -34 c-15 -22 -31 -33
-47 -33 -13 0 -25 -6 -28 -13 -5 -16 49 -16 72 1 22 16 138 301 125 306 -15 5
-18 0 -54 -96 -37 -99 -32 -101 -79 27 -14 39 -30 66 -40 68 -14 3 -14 -3 5
-50z"/>
<path d="M3940 3545 c-48 -51 -32 -183 25 -205 45 -17 75 -11 106 19 25 26 29
37 29 86 0 59 -19 109 -45 119 -39 15 -91 6 -115 -19z m112 -12 c40 -45 28
-156 -18 -173 -36 -14 -42 -13 -69 15 -20 19 -25 34 -25 77 0 68 19 98 64 98
19 0 40 -8 48 -17z"/>
<path d="M4240 3493 c0 -150 32 -191 112 -144 31 18 38 19 38 6 0 -8 5 -15 10
-15 6 0 10 45 10 115 0 70 -4 115 -10 115 -6 0 -10 -35 -10 -84 0 -79 -2 -86
-26 -105 -32 -25 -79 -28 -88 -5 -3 9 -6 56 -6 105 0 72 -3 89 -15 89 -12 0
-15 -15 -15 -77z"/>
<path d="M4570 3455 c0 -96 3 -115 15 -115 12 0 15 16 15 83 0 92 9 109 63
122 15 4 27 11 27 16 0 14 -39 10 -64 -6 -21 -14 -24 -14 -29 0 -4 8 -11 15
-17 15 -6 0 -10 -43 -10 -115z"/>
<path d="M5017 3552 c-37 -41 -12 -96 51 -108 40 -8 66 -36 57 -63 -9 -30 -52
-38 -88 -17 -38 21 -50 11 -17 -16 19 -15 34 -19 63 -15 50 7 67 23 67 63 0
37 -18 53 -82 73 -41 13 -53 33 -38 62 12 21 74 27 85 9 3 -5 13 -10 22 -10
14 0 14 3 -2 20 -24 27 -95 28 -118 2z"/>
<path d="M5507 3558 c-40 -31 -49 -132 -17 -185 34 -57 127 -53 157 7 28 55 8
168 -32 184 -28 10 -90 7 -108 -6z m107 -27 c20 -22 24 -117 7 -149 -16 -30
-60 -37 -90 -14 -22 16 -26 28 -29 76 -4 74 15 106 62 106 20 0 40 -8 50 -19z"/>
<path d="M5826 3551 c-40 -44 -43 -137 -4 -186 23 -29 71 -34 106 -9 21 15 22
14 22 -19 0 -57 -43 -80 -104 -57 -16 6 -27 6 -31 0 -10 -16 46 -32 89 -27 66
9 71 20 74 177 3 123 2 140 -12 140 -9 0 -16 -5 -16 -10 0 -7 -6 -7 -19 0 -32
16 -86 12 -105 -9z m105 -11 c16 -9 19 -22 19 -80 0 -60 -3 -71 -22 -84 -49
-35 -96 -12 -105 51 -13 96 38 150 108 113z"/>
<path d="M6140 3555 c-17 -21 -7 -29 18 -16 27 15 75 14 90 -1 7 -7 12 -22 12
-34 0 -18 -7 -22 -51 -27 -66 -8 -89 -29 -89 -78 0 -30 6 -42 25 -55 28 -18
69 -13 98 13 15 15 17 15 17 0 0 -10 7 -17 15 -17 12 0 15 17 15 93 0 120 -10
137 -84 137 -36 0 -58 -5 -66 -15z m120 -130 c0 -29 -6 -39 -32 -55 -40 -24
-59 -22 -74 8 -23 47 8 79 79 81 24 1 27 -2 27 -34z"/>
<path d="M6440 3455 c0 -96 3 -115 15 -115 12 0 15 16 15 84 0 79 2 86 26 105
37 29 72 27 84 -5 6 -14 10 -61 10 -105 0 -46 4 -79 10 -79 13 0 13 186 0 211
-13 23 -67 26 -96 4 -25 -19 -34 -19 -34 0 0 8 -7 15 -15 15 -12 0 -15 -19
-15 -115z"/>
</g>
</svg>
