<?xml version="1.0" standalone="no"?>
<!DOCTYPE svg PUBLIC "-//W3C//DTD SVG 20010904//EN"
 "http://www.w3.org/TR/2001/REC-SVG-20010904/DTD/svg10.dtd">
<svg version="1.0" xmlns="http://www.w3.org/2000/svg"
 width="1667.000000pt" height="616.000000pt" viewBox="0 0 1667.000000 616.000000"
 preserveAspectRatio="xMidYMid meet">

<g transform="translate(0.000000,616.000000) scale(0.100000,-0.100000)"
fill="#000000" stroke="none">
<path d="M1390 5710 c0 -115 2 -210 5 -210 3 0 17 19 31 43 35 57 119 141 176
178 57 37 134 59 207 59 l54 0 -7 -30 c-9 -48 -71 -174 -110 -227 -65 -86
-205 -188 -323 -235 l-33 -13 0 -1370 c0 -827 4 -1424 10 -1505 25 -330 129
-671 292 -955 86 -149 98 -165 126 -165 51 0 200 -178 279 -331 31 -60 30 -59
158 -163 153 -125 258 -192 437 -280 361 -176 725 -249 1148 -232 345 15 644
96 950 258 252 133 517 343 573 454 52 103 213 294 247 294 31 0 111 122 197
300 96 199 150 361 203 610 25 119 29 395 30 1716 l0 1370 -84 43 c-174 87
-247 160 -330 330 -66 135 -65 135 39 128 67 -5 97 -12 138 -34 51 -27 171
-138 214 -198 l22 -30 0 203 1 202 -2325 0 -2325 0 0 -210z m3410 -1685 l0
-445 -335 0 -335 0 0 93 c0 127 -6 286 -11 291 -2 2 -76 6 -164 7 l-160 4 0
-215 0 -215 125 -5 125 -5 3 -172 2 -173 -112 -2 c-62 0 -119 -1 -126 -1 -7 1
-15 -9 -18 -21 -8 -34 0 -453 9 -463 13 -12 298 -16 310 -4 6 6 13 100 16 233
l6 223 333 3 332 2 2 -367 c2 -299 1 -461 -2 -595 0 -5 -447 -8 -994 -8 -897
0 -994 2 -1000 16 -8 21 -8 277 0 392 l7 92 48 0 c87 0 79 -66 79 651 l0 639
-70 0 -70 0 0 245 0 245 1000 0 1000 0 0 -445z"/>
<path d="M1520 5575 c-8 -9 -8 -15 -2 -15 12 0 26 19 19 26 -2 2 -10 -2 -17
-11z"/>
<path d="M5900 5575 c7 -9 15 -13 17 -11 7 7 -7 26 -19 26 -6 0 -6 -6 2 -15z"/>
<path d="M7770 4490 l0 -720 470 0 470 0 0 130 0 130 -310 0 -310 0 0 195 0
195 310 0 310 0 0 130 0 130 -310 0 -310 0 0 135 0 135 310 0 310 0 0 130 0
130 -470 0 -470 0 0 -720z"/>
<path d="M9408 4840 c-231 -39 -421 -205 -468 -410 -31 -133 -7 -296 60 -400
38 -59 139 -156 202 -193 197 -115 463 -112 662 8 32 19 60 35 62 35 2 0 4
-25 4 -55 l0 -55 155 0 155 0 0 530 0 530 -155 0 -155 0 0 -55 c0 -30 -3 -55
-6 -55 -3 0 -31 16 -62 35 -128 79 -299 111 -454 85z m350 -265 c114 -51 182
-154 182 -275 0 -120 -63 -215 -178 -272 -62 -31 -73 -33 -172 -33 -88 0 -113
4 -154 23 -76 35 -131 86 -163 150 -24 48 -28 69 -28 137 0 67 5 88 27 131 62
117 176 176 333 171 74 -3 102 -8 153 -32z"/>
<path d="M10820 4839 c-222 -37 -354 -219 -276 -384 43 -92 126 -153 322 -236
142 -60 180 -83 199 -118 18 -36 2 -70 -45 -93 -70 -36 -197 -12 -304 56 l-51
32 -98 -85 -98 -86 43 -37 c93 -80 213 -124 363 -134 220 -14 413 71 475 209
30 65 27 169 -6 235 -43 87 -119 138 -343 231 -79 33 -152 68 -162 77 -30 27
-24 61 14 85 62 39 172 14 267 -61 l35 -28 65 55 c36 31 81 69 100 86 l34 30
-44 39 c-124 108 -312 156 -490 127z"/>
<path d="M11721 4345 c131 -267 239 -491 239 -497 0 -6 -56 -111 -125 -234
-69 -122 -125 -225 -125 -229 0 -3 73 -4 162 -3 l163 3 372 675 c205 371 384
696 398 723 l26 47 -163 0 -163 0 -180 -330 c-99 -181 -182 -329 -185 -330 -3
0 -79 149 -170 330 l-165 330 -162 0 -161 0 239 -485z"/>
<path d="M12623 2844 c-128 -47 -155 -198 -51 -278 135 -102 353 -12 336 139
-7 55 -31 90 -84 121 -55 33 -141 40 -201 18z"/>
<path d="M11980 2105 l0 -735 160 0 160 0 0 735 0 735 -160 0 -160 0 0 -735z"/>
<path d="M14210 2105 l0 -735 159 0 160 0 3 318 c4 353 5 355 75 433 49 54
104 81 180 87 109 8 195 -43 224 -135 7 -25 13 -156 16 -370 l5 -333 154 0
154 0 0 383 c0 323 -3 392 -16 437 -44 147 -179 240 -370 256 -110 8 -205 -13
-326 -74 l-98 -49 0 258 0 259 -160 0 -160 0 0 -735z"/>
<path d="M7770 2090 l0 -720 470 0 470 0 0 130 0 130 -310 0 -310 0 0 195 0
195 310 0 310 0 0 130 0 130 -310 0 -310 0 0 135 0 135 310 0 310 0 0 130 0
130 -470 0 -470 0 0 -720z"/>
<path d="M9595 2444 c-65 -10 -167 -48 -227 -84 l-63 -38 -3 54 -3 54 -159 0
-160 0 0 -530 0 -530 159 0 160 0 3 313 c3 301 4 314 26 362 46 99 123 154
229 163 109 8 195 -43 224 -135 7 -24 13 -159 16 -370 l5 -333 155 0 154 0 -3
403 -3 402 -33 68 c-60 121 -190 193 -362 201 -47 3 -98 2 -115 0z"/>
<path d="M10848 2440 c-243 -44 -424 -202 -467 -408 -16 -75 -14 -188 4 -257
37 -140 145 -266 286 -333 112 -53 173 -67 304 -67 153 0 257 30 352 101 17
13 33 24 35 24 7 0 -10 -135 -20 -160 -16 -40 -84 -96 -143 -116 -42 -15 -83
-19 -179 -19 -140 0 -198 14 -269 66 l-41 29 -170 0 c-93 0 -170 -3 -170 -7 0
-18 61 -111 97 -147 96 -98 229 -155 413 -177 325 -37 610 53 726 231 12 19
33 64 46 100 23 64 23 70 26 598 l3 532 -155 0 -156 0 0 -55 c0 -30 -3 -55 -6
-55 -4 0 -32 15 -63 34 -122 75 -316 111 -453 86z m354 -262 c138 -63 202
-194 169 -342 -38 -172 -254 -270 -459 -207 -145 44 -227 148 -226 286 1 134
80 232 229 282 67 22 219 12 287 -19z"/>
<path d="M13410 2439 c-222 -37 -354 -219 -276 -384 43 -92 126 -153 322 -236
142 -60 180 -83 199 -118 18 -36 2 -70 -45 -93 -70 -36 -197 -12 -304 56 l-51
32 -98 -85 -98 -86 43 -37 c93 -80 213 -124 363 -134 220 -14 413 71 475 209
30 65 27 169 -6 235 -43 87 -119 138 -343 231 -79 33 -152 68 -162 77 -30 27
-24 61 14 85 62 39 172 14 267 -61 l35 -28 65 55 c36 31 81 69 100 86 l34 30
-44 39 c-124 108 -312 156 -490 127z"/>
<path d="M12550 1900 l0 -530 160 0 160 0 0 530 0 530 -160 0 -160 0 0 -530z"/>
</g>
</svg>
